<?xml version="1.0" encoding="utf-8"?>
<!-- Generator: Adobe Illustrator 24.3.0, SVG Export Plug-In . SVG Version: 6.00 Build 0)  -->
<svg version="1.1" id="Слой_1" xmlns="http://www.w3.org/2000/svg" xmlns:xlink="http://www.w3.org/1999/xlink" x="0px" y="0px"
	 viewBox="0 0 569.3 567.8" style="enable-background:new 0 0 569.3 567.8;" xml:space="preserve">
<style type="text/css">
	.st0{fill:url(#SVGID_1_);stroke:url(#SVGID_2_);stroke-miterlimit:10;}
</style>
<linearGradient id="SVGID_1_" gradientUnits="userSpaceOnUse" x1="11.3507" y1="253.3913" x2="556.0406" y2="253.3913">
	<stop  offset="0" style="stop-color:#77B3E2"/>
	<stop  offset="8.759597e-02" style="stop-color:#6EB0E1"/>
	<stop  offset="0.2332" style="stop-color:#54A9DD"/>
	<stop  offset="0.4177" style="stop-color:#2B9DD8"/>
	<stop  offset="0.5843" style="stop-color:#0091D2"/>
	<stop  offset="1" style="stop-color:#007AC0"/>
</linearGradient>
<linearGradient id="SVGID_2_" gradientUnits="userSpaceOnUse" x1="10.8507" y1="253.6012" x2="556.5406" y2="253.6012">
	<stop  offset="0" style="stop-color:#77B3E2"/>
	<stop  offset="8.759597e-02" style="stop-color:#6EB0E1"/>
	<stop  offset="0.2332" style="stop-color:#54A9DD"/>
	<stop  offset="0.4177" style="stop-color:#2B9DD8"/>
	<stop  offset="0.5843" style="stop-color:#0091D2"/>
	<stop  offset="1" style="stop-color:#007AC0"/>
</linearGradient>
<path class="st0" d="M556,296.4c0,72.1-28,137.7-73.8,186.4c-30.9-79.2-108.1-135.3-198.5-135.3c62.7,0,113.5-50.8,113.5-113.5
	s-50.8-113.5-113.5-113.5c-62.7,0-113.5,50.8-113.5,113.5S221,347.5,283.7,347.5c-90.4,0-167.7,56.1-198.5,135.3
	c-45.8-48.7-73.8-114.3-73.8-186.4C11.4,145.9,133.3,24,283.7,24C434.1,24,556,145.9,556,296.4z"/>
</svg>
