<svg xmlns="http://www.w3.org/2000/svg" xmlns:xlink="http://www.w3.org/1999/xlink" viewBox="0 0 1271.99 1254.06"><defs><style>.cls-1{fill:url(#Безымянный_градиент_140);}.cls-2{fill:url(#Небо);}.cls-3{fill:url(#Безымянный_градиент_178);}.cls-4{fill:url(#Безымянный_градиент_183);}.cls-5{fill:url(#Безымянный_градиент_183-2);}.cls-6{fill:url(#Безымянный_градиент_183-3);}.cls-7{fill:url(#Небо-2);}.cls-8{fill:#fff;}.cls-9{fill:url(#Безымянный_градиент_187);}.cls-10{fill:url(#Безымянный_градиент_140-3);}.cls-11{fill:url(#Безымянный_градиент_140-4);}.cls-12{fill:url(#Безымянный_градиент_185);}.cls-13{fill:url(#Безымянный_градиент_183-4);}.cls-14{fill:url(#Безымянный_градиент_140-5);}.cls-15{fill:url(#Безымянный_градиент_140-6);}.cls-16{fill:url(#Безымянный_градиент_140-10);}.cls-17{fill:url(#Небо-3);}.cls-18{fill:url(#Безымянный_градиент_140-12);}.cls-19{fill:url(#Небо-4);}.cls-20{fill:url(#Небо-5);}.cls-21{fill:url(#Небо-6);}.cls-22{fill:url(#Небо-7);}.cls-23{fill:url(#Небо-8);}.cls-24{fill:url(#Небо-9);}.cls-25{fill:url(#Небо-10);}.cls-26{fill:url(#Небо-11);}.cls-27{fill:url(#Небо-12);}.cls-28{fill:url(#Небо-13);}.cls-29{fill:url(#Небо-14);}.cls-30{fill:url(#Небо-15);}.cls-31{fill:url(#Безымянный_градиент_183-5);}.cls-32{fill:url(#Безымянный_градиент_186);}.cls-33{fill:url(#Безымянный_градиент_183-6);}</style><linearGradient id="Безымянный_градиент_140" x1="749.33" y1="467.66" x2="752.55" y2="467.66" gradientUnits="userSpaceOnUse"><stop offset="0" stop-color="#cce0f4"/><stop offset="0.06" stop-color="#c3daf2"/><stop offset="0.17" stop-color="#a9caee"/><stop offset="0.31" stop-color="#80b0e7"/><stop offset="0.46" stop-color="#478cde"/><stop offset="0.57" stop-color="#1e72d7"/><stop offset="0.87" stop-color="#005abe"/><stop offset="0.99" stop-color="#004f97"/></linearGradient><linearGradient id="Небо" x1="1587.77" y1="865.28" x2="1612.93" y2="865.28" gradientUnits="userSpaceOnUse"><stop offset="0" stop-color="#cce0f4"/><stop offset="0.06" stop-color="#c3dcf2"/><stop offset="0.17" stop-color="#a9d2ee"/><stop offset="0.31" stop-color="#80c2e7"/><stop offset="0.46" stop-color="#47acde"/><stop offset="0.57" stop-color="#1e9cd7"/><stop offset="0.87" stop-color="#0075be"/><stop offset="0.99" stop-color="#005b97"/></linearGradient><linearGradient id="Безымянный_градиент_178" x1="1157.02" y1="1117.09" x2="1244.01" y2="1237.55" gradientUnits="userSpaceOnUse"><stop offset="0" stop-color="#cce0f4"/><stop offset="0.06" stop-color="#c3dcf2"/><stop offset="0.17" stop-color="#a9d2ee"/><stop offset="0.31" stop-color="#80c2e7"/><stop offset="0.46" stop-color="#47acde"/><stop offset="0.57" stop-color="#1e9cd7"/><stop offset="0.75" stop-color="#0075be"/><stop offset="0.88" stop-color="#0074bc"/><stop offset="0.93" stop-color="#006fb5"/><stop offset="0.96" stop-color="#0067a9"/><stop offset="0.99" stop-color="#005c98"/><stop offset="0.99" stop-color="#005b97"/></linearGradient><linearGradient id="Безымянный_градиент_183" x1="1574.43" y1="899.43" x2="1635.99" y2="899.43" gradientUnits="userSpaceOnUse"><stop offset="0" stop-color="#cce0f4"/><stop offset="0.12" stop-color="#a8d2ee"/><stop offset="0.38" stop-color="#4eafdf"/><stop offset="0.52" stop-color="#1e9cd7"/><stop offset="0.63" stop-color="#1792d1"/><stop offset="0.81" stop-color="#0379c0"/><stop offset="0.83" stop-color="#0075be"/><stop offset="0.99" stop-color="#005b97"/></linearGradient><linearGradient id="Безымянный_градиент_183-2" x1="1415.96" y1="678.9" x2="1462.24" y2="678.9" xlink:href="#Безымянный_градиент_183"/><linearGradient id="Безымянный_градиент_183-3" x1="1246.74" y1="660.11" x2="1375.54" y2="660.11" xlink:href="#Безымянный_градиент_183"/><linearGradient id="Небо-2" x1="814.59" y1="1080.18" x2="1592.45" y2="1080.18" xlink:href="#Небо"/><linearGradient id="Безымянный_градиент_187" x1="803.77" y1="478.34" x2="671.94" y2="597.14" xlink:href="#Небо"/><linearGradient id="Безымянный_градиент_140-3" x1="824.23" y1="1572.43" x2="824.28" y2="1572.43" xlink:href="#Безымянный_градиент_140"/><linearGradient id="Безымянный_градиент_140-4" x1="575.98" y1="1592.16" x2="576" y2="1592.16" xlink:href="#Безымянный_градиент_140"/><linearGradient id="Безымянный_градиент_185" x1="778.92" y1="740.02" x2="727.62" y2="838.11" gradientUnits="userSpaceOnUse"><stop offset="0.04" stop-color="#cce0f4"/><stop offset="0.15" stop-color="#a8d2ee"/><stop offset="0.39" stop-color="#4eafdf"/><stop offset="0.52" stop-color="#1e9cd7"/><stop offset="0.63" stop-color="#1792d1"/><stop offset="0.81" stop-color="#0379c0"/><stop offset="0.83" stop-color="#0075be"/><stop offset="0.99" stop-color="#005b97"/></linearGradient><linearGradient id="Безымянный_градиент_183-4" x1="778.45" y1="613.24" x2="631.26" y2="813.32" xlink:href="#Безымянный_градиент_183"/><linearGradient id="Безымянный_градиент_140-5" x1="832.27" y1="1610.09" x2="832.37" y2="1610.09" xlink:href="#Безымянный_градиент_140"/><linearGradient id="Безымянный_градиент_140-6" x1="632.46" y1="1566.17" x2="632.51" y2="1566.17" xlink:href="#Безымянный_градиент_140"/><linearGradient id="Безымянный_градиент_140-10" x1="725.11" y1="1386.76" x2="725.67" y2="1386.76" xlink:href="#Безымянный_градиент_140"/><linearGradient id="Небо-3" x1="614.79" y1="1377.64" x2="786.55" y2="1377.64" xlink:href="#Небо"/><linearGradient id="Безымянный_градиент_140-12" x1="578.76" y1="1453.15" x2="579.51" y2="1453.15" xlink:href="#Безымянный_градиент_140"/><linearGradient id="Небо-4" x1="482.69" y1="1604.29" x2="575.96" y2="1604.29" xlink:href="#Небо"/><linearGradient id="Небо-5" x1="540" y1="1494.84" x2="548.92" y2="1494.84" xlink:href="#Небо"/><linearGradient id="Небо-6" x1="587.36" y1="1354.27" x2="591.3" y2="1354.27" xlink:href="#Небо"/><linearGradient id="Небо-7" x1="364.01" y1="1387.09" x2="532.02" y2="1387.09" xlink:href="#Небо"/><linearGradient id="Небо-8" x1="792.89" y1="1487.63" x2="804.38" y2="1487.63" xlink:href="#Небо"/><linearGradient id="Небо-9" x1="550.46" y1="1541.9" x2="646.68" y2="1541.9" xlink:href="#Небо"/><linearGradient id="Небо-10" x1="577.66" y1="1437.71" x2="581.62" y2="1437.71" xlink:href="#Небо"/><linearGradient id="Небо-11" x1="649.76" y1="1496.81" x2="660.46" y2="1496.81" xlink:href="#Небо"/><linearGradient id="Небо-12" x1="813.36" y1="1596.09" x2="870.73" y2="1596.09" xlink:href="#Небо"/><linearGradient id="Небо-13" x1="737.23" y1="1595.38" x2="832.33" y2="1595.38" xlink:href="#Небо"/><linearGradient id="Небо-14" x1="804.23" y1="1539.58" x2="880.62" y2="1539.58" xlink:href="#Небо"/><linearGradient id="Небо-15" x1="473.88" y1="572.59" x2="494.75" y2="572.59" xlink:href="#Небо"/><linearGradient id="Безымянный_градиент_183-5" x1="664.56" y1="1108.87" x2="746.67" y2="1108.87" xlink:href="#Безымянный_градиент_183"/><linearGradient id="Безымянный_градиент_186" x1="838.08" y1="784.35" x2="419.96" y2="580.23" gradientUnits="userSpaceOnUse"><stop offset="0" stop-color="#cce0f4"/><stop offset="0.12" stop-color="#a8d2ee"/><stop offset="0.38" stop-color="#4eafdf"/><stop offset="0.52" stop-color="#1e9cd7"/><stop offset="0.63" stop-color="#1792d1"/><stop offset="0.81" stop-color="#0379c0"/><stop offset="0.83" stop-color="#0075be"/><stop offset="0.99" stop-color="#005b97"/></linearGradient><linearGradient id="Безымянный_градиент_183-6" x1="464.79" y1="495.03" x2="402.31" y2="593.67" xlink:href="#Безымянный_градиент_183"/></defs><g id="Слой_1" data-name="Слой 1"><path class="cls-1" d="M750.41,467.92l-1.08.58c1.08-.54,2.15-1.11,3.22-1.69Z" transform="translate(-364.01 -372.97)"/><path class="cls-2" d="M1588,877.89c-.09-4.79,4-13.48,8.75-20.2C1591.16,863.88,1586.62,871.91,1588,877.89Zm1.87,3.39c1.64,1.74,3.26,1.13,4.94-.74C1592.62,881.48,1591,881.67,1589.91,881.28Zm5.68-1.65c2.13-2.8,4.36-7.35,6.81-11.56C1598.74,872.24,1595.67,876.36,1595.59,879.63Zm13.47-31.09a11.49,11.49,0,0,1,3.87.74C1612.19,848.19,1610.81,848,1609.06,848.54Zm2,9.92a6,6,0,0,1,1-.27c.22-.62.42-1.22.58-1.77C1612.15,857.08,1611.61,857.76,1611,858.46Z" transform="translate(-364.01 -372.97)"/><path class="cls-3" d="M1408.53,1048.59c0,.45,0,.88,0,1.31a3.1,3.1,0,0,1,.26.78A13.34,13.34,0,0,1,1408.53,1048.59Zm-14.08-43.67a14.68,14.68,0,0,1,1.46,1A12,12,0,0,0,1394.45,1004.92Zm-1-.56-.12-.05.48.24Zm-4.3,2.73v.51c0-.21,0-.42,0-.63A.49.49,0,0,0,1389.12,1007.09Zm-10,92.67c8,1.35,25.63-29.24,29.2-43.58C1404.69,1070.16,1387.51,1099.56,1379.1,1099.76ZM975.45,1247.63c-.44,3.38-6.37,8.43-11.61,11.94,5.66-3.68,10.76-7.9,12.1-10.59A12.39,12.39,0,0,0,975.45,1247.63Zm-6.07-3.57a13.37,13.37,0,0,1,3.9.63A4.71,4.71,0,0,0,969.38,1244.06Zm-11.84,19.11c-16.66,8.37-13,.71-5-7.31a18.16,18.16,0,0,1-2.86,1.84c-10,12.94-.41,10.41,9.94,4.48C958.8,1262.59,958.11,1262.93,957.54,1263.17Z" transform="translate(-364.01 -372.97)"/><path class="cls-4" d="M1610.22,956.54c6.34-25.52,15.08-57.86,25.18-81.23a7.06,7.06,0,0,0,.56-3.51c-9.48-89.39-104.74,12.84-37.92,87.69A7.08,7.08,0,0,0,1610.22,956.54Zm2.9-100.85a6.67,6.67,0,0,0-.79,1.66l-.29.84a6,6,0,0,0-1,.27c-2.45,3-5.72,6.29-8.62,9.6h0c-2.45,4.21-4.68,8.76-6.81,11.56a5.43,5.43,0,0,0,0,.57l-.75.33h0c-1.68,1.87-3.3,2.48-4.94.74-1.27-.44-1.84-1.66-1.87-3.39-1.42-6,3.12-14,8.75-20.2l0,0a33.39,33.39,0,0,1,7.52-8,6.61,6.61,0,0,1,3.91-1.12h0a6.2,6.2,0,0,0,1.42-.12c1.44-.3,2.58,0,3.23.9h0C1615.55,850.44,1615.08,852.76,1613.12,855.69Z" transform="translate(-364.01 -372.97)"/><path class="cls-5" d="M1416,650.93a12.54,12.54,0,0,1,1.87-7.87c27.75-44.51,50.65,5.86,42.79,40.31q-.09.4-.15.81C1445.24,787.46,1420.62,699.37,1416,650.93Z" transform="translate(-364.01 -372.97)"/><path class="cls-6" d="M1326,681.12h4.41c1.6,0,3.09,0,4.53.13a9.58,9.58,0,0,1,2.86.23c11.75.61,24.07,19.13,32.37,21.18a4.5,4.5,0,0,0,5.11-6.07C1312,534.79,1150.59,669.15,1326,681.12Zm-57.15-52.33c10-2,27.25.83,22.52,5.51l-.17.16a14.71,14.71,0,0,1-4.26,2.35l-.43.17-.28.11-.88.32c-.83.29-1.74.58-2.74.89a30.92,30.92,0,0,0-5,2l-.62.29a3.66,3.66,0,0,1-.51.21,4.87,4.87,0,0,1-.53.21c-.24.09-.48.16-.72.23a12,12,0,0,1-1.41.33l-.29,0c-.44.07-.87.12-1.31.15,0,0-.05,0-.07,0a2.36,2.36,0,0,1-.37,0C1261.26,642.27,1252,631.89,1268.8,628.79Z" transform="translate(-364.01 -372.97)"/><path class="cls-7" d="M1570.26,936.26A33,33,0,0,0,1567,930c-38.66-58.77,21.4-148.38-40.67-192.22a5.88,5.88,0,0,0-1.38-.73c-34.49-12.87-56,33.87-57.44,62.64-84.24-77-205.56-88.2-327.06-93.18-17.17-3.14-55.06,14.53-36.16,33.81,12.79,10.87,33.59,4.28,43.67,18-122,54.53-156.36,193-279.55,215.88-13.21,3.36-27.71,8.92-38.69,18.88-5.17,4.69-13,9-10.31,17.76,2.19,7.13,9.58,9,16,10.59,10.86,2.8,21.85,0,32.79-.23,49.53-19.23,23.11-2.46-1.87,15.08,0,0,0,0,0,0-8.53,7.11-20.33,9.16-27.76,18l.06,0-3.89,2.71a46.28,46.28,0,0,1-4.9,3.77c-10.1,5.81-14.62,15.45-15.18,26.13-.49,9.31,16.94,22.26,28.71,23.84,22.93,3.09,40.36-6.89,55.93-22.25,16.14-15.92,27.26-35.08,37-55.27,6.29-8.68,9,16,16.84,18.56,26.48,29.09,33.37-20.9,38.38-37.35,96.25,186.36,31.67-160.19,163.55-140.66,102.32.25-29.28,19.8-13.89,73.34,5.77,20.06,28.13,30.32,47.42,22.34,252.09-104.3,246.14,176-86.66,208.18-49,9.69-102.33,17.3-142.23,49.76-53.45,32.85-94.12,87-112.35,147.29-1.67,8.09-5.26,15.46-6.63,23.89-1.45,8.93,0,17.47-.26,26a43.08,43.08,0,0,1-.82,15.24c-.26,4.91-2.3,10.46,5.4,12.39,15.62,6.79,23-5.62,32.13-13.83,1.19-1.06,2.51-2,3.8-2.93a23.52,23.52,0,0,1,1.57-2.9,15.19,15.19,0,0,1,2.07-4.17c5.11-6.54,12.4-12.07,15.42-19.41a15.75,15.75,0,0,1,5.44-6.81,29.24,29.24,0,0,0,5.83-5.77c2.24-2.94,4.57-5.79,7-8.51,10.2-11.24,23.91-19.08,37.37-25.79,194.19-92.66,471.24,23.61,605.4-196.53l14.49-28.14C1602.3,1073.79,1594.87,999.44,1570.26,936.26Zm-605.64,5c36-27.9,90.76-133.5,130.16-131C1039.71,836.63,1018.48,937.12,964.62,941.25Zm208.9-201.41c-13.06,33.9-36.35,3.71-4.25-3.52C1171.77,735.86,1174.84,738.36,1173.52,739.84ZM1165.1,950c2.17,31.73-27-4.1-6.47-33.28C1174.22,896.38,1157.91,941.58,1165.1,950Zm75-49.53c-17.72-3.66-19.4-44.28-2.48-27.65a10.5,10.5,0,0,1,3.17,6.22c.5,4.24,2.94,7.19,5.57,10C1251,893.78,1246.61,901.78,1240.14,900.45ZM931.35,1285.58c-19.91,21.18-37.25,44.36-51,69.86-5.43,10.07-11.73,20.28-13.55,32.13-.42,2.7-1.67,5.65-5,5.25-3.62-.43-4.46-3.5-4.41-6C862,1364.39,869,1343.6,882.73,1326,886.11,1315.63,954.38,1244.93,931.35,1285.58Zm32.49-26a3.28,3.28,0,0,1-.31.2c-1.13.75-2.21,1.42-3.2,2l-.75.43c-10.35,5.93-19.92,8.46-9.94-4.48a18.16,18.16,0,0,0,2.86-1.84c5.25-5.29,12.37-10.73,16.75-11.81h.13a4.71,4.71,0,0,1,3.9.63c1.73.63,2.34,1.67,2.17,2.94a12.39,12.39,0,0,1,.49,1.35C974.6,1251.67,969.5,1255.89,963.84,1259.57Zm444.88-205.33c-.07.41-.16.83-.26,1.28,0,.21-.1.43-.16.66-3.57,14.34-21.16,44.93-29.2,43.58-1.79,0-3.18-1.23-4-4.25,22.59-24.58,14.42-57.54,14-84.85,0-.82,0-1.62,0-2.42,0-.22,0-.43,0-.64v-.51a.49.49,0,0,1,0-.12c0-1.26,0-2.51.11-3.74a11.67,11.67,0,0,1,4.06,1.08l.12.05.36.19a4.71,4.71,0,0,1,.58.32l.09,0a12,12,0,0,1,1.46,1l.12.1c.16.12.32.26.48.4a15.15,15.15,0,0,1,1.54,1.56l.47.55,0,0c.26.34.53.68.79,1s.36.52.54.79c.27.42.54.86.8,1.3l.39.7.4.75c.21.42.42.86.63,1.3s.27.61.41.93l.33.79c.11.26.22.53.32.81l.3.82c.31.82.59,1.68.86,2.55.15.45.28.91.41,1.37,0,.13.08.26.11.39.14.5.28,1,.41,1.54s.34,1.36.49,2.05c.08.34.16.68.23,1,.33,1.54.63,3.12.88,4.7.09.53.17,1.07.25,1.61.12.74.22,1.48.31,2.22.07.51.13,1,.19,1.51.16,1.31.3,2.62.41,3.91,0,.47.09.94.12,1.41.08.87.14,1.73.19,2.57,0,.6.08,1.2.11,1.79s.06,1.17.09,1.75c0,.13,0,.26,0,.39a13.34,13.34,0,0,0,.31,2.09v0a4.27,4.27,0,0,1,.08.55q0,.3,0,.63A14.18,14.18,0,0,1,1408.72,1054.24Zm74.41,22.81c-16.16,1.24-23.83-3.19-38.31,14.34a3.3,3.3,0,0,1-5.07.12c-10.87-13,37.6-39.72,45.74-18.18A2.75,2.75,0,0,1,1483.13,1077.05Z" transform="translate(-364.01 -372.97)"/><path class="cls-8" d="M1240.14,900.45c-17.72-3.66-19.4-44.28-2.48-27.65a10.5,10.5,0,0,1,3.17,6.22c.5,4.24,2.94,7.19,5.57,10C1251,893.78,1246.61,901.78,1240.14,900.45Z" transform="translate(-364.01 -372.97)"/><path class="cls-8" d="M1173.52,739.84c-13.06,33.9-36.35,3.71-4.25-3.52C1171.77,735.86,1174.84,738.36,1173.52,739.84Z" transform="translate(-364.01 -372.97)"/><path class="cls-8" d="M1483.13,1077.05c-16.16,1.24-23.83-3.19-38.31,14.34a3.3,3.3,0,0,1-5.07.12c-10.87-13,37.6-39.72,45.74-18.18A2.75,2.75,0,0,1,1483.13,1077.05Z" transform="translate(-364.01 -372.97)"/><path class="cls-9" d="M884.19,412.36c-.38,10.05-7.31,15.77-16.23,20.12-14.18,6.92-31.32,8.1-41.35,23.39-5,7.65-17.08,11-13.25,23.6,2.06,6.78,4.59,13.44,6.33,20.3,4.09,16.13-3.13,28.67-13.42,40.09-9.26,13.37-23.2,20-37.53,26.11l-52.06,27.76c-3.41.82-3.56-.52-2.94-3.54,3.27-15.82,4-31.37-5.48-45.76a9.72,9.72,0,0,0-.91-1.17l-.31-.33-.21-.21a5.6,5.6,0,0,0-.43-.41c-.18-.17-.37-.33-.57-.49s-.57-.46-.87-.68h0c-.31-.23-.63-.44-1-.65s-.44-.28-.67-.41l-.89-.5c-.3-.16-.6-.32-.91-.47l-1-.44-1-.41c-.36-.15-.72-.29-1.09-.41-.73-.27-1.47-.5-2.21-.7-.37-.11-.74-.21-1.11-.29s-.73-.17-1.1-.24-.73-.14-1.09-.19l-.11,0-1-.12-1-.09-.45,0h-.36a13.07,13.07,0,0,0-2.94.22,3.41,3.41,0,0,0-.46.1,5.87,5.87,0,0,0-.87.26,3.8,3.8,0,0,0-.47.18,1.51,1.51,0,0,0-.26.12c-.13.06-.25.13-.37.2l0,0-.38.26a2.43,2.43,0,0,0-.3.24,4.89,4.89,0,0,0-.4.39c-5.42.39-6.34-2.82-3.75-6.29q1.81-2.43,3.66-4.82c1.23-1.59,2.48-3.17,3.73-4.74q1.53-1.9,3.09-3.78c.6-.73,1.21-1.44,1.82-2.16l1.48-1.74c.62-.72,1.24-1.44,1.87-2.15q4.5-5.14,9.27-10c.69-.7,1.38-1.39,2.08-2.08q2.08-2.07,4.23-4.08c.71-.67,1.43-1.34,2.16-2s1.45-1.31,2.18-2l1.11-1c.37-.34.74-.66,1.11-1,.74-.64,1.49-1.27,2.24-1.9.54-.45,1.07-.9,1.62-1.34,1-.8,2-1.59,3-2.36.77-.61,1.55-1.21,2.33-1.8s1.64-1.24,2.47-1.84l1.35-1c.57-.42,1.14-.82,1.72-1.22s1.22-.85,1.83-1.27l.12-.08c.72-.49,1.45-1,2.19-1.46l1.36-.88q1.83-1.19,3.69-2.31c.85-.52,1.71-1,2.57-1.53s1.67-1,2.52-1.44l.3-.17,2.45-1.34c1.08-.54,2.15-1.11,3.22-1.69l.31-.16,2.56-1.28,1.31-.64c.46-.23.91-.45,1.37-.66l1.77-.84c.68-.32,1.35-.63,2-.93l1.25-.57.69-.31,3.55-1.54q3.11-1.33,6.24-2.57c1-.39,2-.77,2.92-1.14,1.16-.46,2.32-.89,3.48-1.32l3-1.09a.44.44,0,0,1,.16-.06l2.38-.85c1.33-.47,2.67-.94,4-1.39l2.93-1,2.53-.83c1.68-.55,3.38-1.09,5.07-1.61l4.42-1.36,3.57-1.07q2.91-.87,5.83-1.71c6.35-1.83,8.58-7.17,11.79-11.38,10.07-13.17,21.07-23.44,39.44-19.08a3.47,3.47,0,0,0,4.4-2.19c.76-2.4-1.15-3.83-2.81-5.05-2.42-1.78-8.33-1.6-7.4-4.05,1.24-3.29,6,0,9.27-.24.74-.05,1.49,0,2.24,0C876.69,403.69,884.5,404.33,884.19,412.36Z" transform="translate(-364.01 -372.97)"/><path class="cls-1" d="M752.55,466.81c-1.07.58-2.14,1.15-3.22,1.69l1.08-.58Z" transform="translate(-364.01 -372.97)"/><path class="cls-10" d="M824.28,1572.41v0l0,0s0,0,0,0Z" transform="translate(-364.01 -372.97)"/><path class="cls-11" d="M576,1592.16h0v0Z" transform="translate(-364.01 -372.97)"/><path class="cls-12" d="M785.41,748c-4,21.9-14.63,40.27-30.54,55.76-4.28,4.17-7,10-13.06,12.24l-5.55,4.35c-5.18,6.29-12.63,9.51-19.13,14-.47.33-1.72-.48-2.61-.76.76-1.49,1.17-3.38,2.33-4.41,6.71-5.92,14.88-10.18,19.74-18.18,2-3.32,4.6-6.3,6.93-9.44,10.11-19.5,13.91-41.37,23-61.19,2.34-5.1,8-6.31,13.64-4.3C786.16,738.17,786.22,743.54,785.41,748Z" transform="translate(-364.01 -372.97)"/><path class="cls-13" d="M791,638.92c-15.06,18.16-36.85,27.45-54.89,41.67-5.59,4.41-10.56,9.6-15.81,14.43-5,3.37-6.05,10.67-12.54,12.56h0c-13.83,17.53-28.38,34.58-38.31,54.8a272.74,272.74,0,0,0-17.83,46.47c-.81,2.89-1.34,6.19-4.76,7.55.19-2.8-.1-5.74.64-8.39C659,767,671.15,726.23,693.2,689.14c7-11.83,15.21-22.75,22.78-34.14,1.13-1.71,3.44-2.65,5.2-3.94,13.17-18.21,30.68-31.7,50-42.33,7.5-4.14,18.62-9.71,26.16,2C804.53,622,797.93,630.61,791,638.92Z" transform="translate(-364.01 -372.97)"/><path class="cls-14" d="M832.37,1610.06l0,.06h0l0,0Z" transform="translate(-364.01 -372.97)"/><path class="cls-15" d="M632.51,1566.12s0,.05,0,.08l0,0Z" transform="translate(-364.01 -372.97)"/><path class="cls-14" d="M832.37,1610.06l0,.06h0l0,0Z" transform="translate(-364.01 -372.97)"/><path class="cls-15" d="M632.51,1566.12s0,.05,0,.08l0,0Z" transform="translate(-364.01 -372.97)"/><path class="cls-8" d="M1094.78,810.23c-55.07,26.4-76.3,126.89-130.16,131C1000.62,913.35,1055.38,807.75,1094.78,810.23Z" transform="translate(-364.01 -372.97)"/><path class="cls-8" d="M931.35,1285.58c-19.91,21.18-37.25,44.36-51,69.86-5.43,10.07-11.73,20.28-13.55,32.13-.42,2.7-1.67,5.65-5,5.25-3.62-.43-4.46-3.5-4.41-6C862,1364.39,869,1343.6,882.73,1326,886.11,1315.63,954.38,1244.93,931.35,1285.58Z" transform="translate(-364.01 -372.97)"/><path class="cls-8" d="M1409,1051.89a14.18,14.18,0,0,1-.23,2.35c-.07.41-.16.83-.26,1.28,0,.21-.1.43-.16.66-3.57,14.34-21.16,44.93-29.2,43.58a2.92,2.92,0,0,1-1.71-.93,3.82,3.82,0,0,1,0-5.06c20.6-24.37,12.28-56.45,11.76-83.11,0-.82,0-1.62,0-2.42,0-.22,0-.43,0-.64v-.51a.49.49,0,0,1,0-.12,3,3,0,0,1,4.17-2.66l.12.05.36.19c.2.1.39.21.58.32l.09,0a12,12,0,0,1,1.46,1l.12.1.48.4a15.15,15.15,0,0,1,1.54,1.56l.47.55,0,0c.26.34.53.68.79,1s.36.52.54.79c.27.42.54.86.8,1.3l.39.7.4.75c.21.42.42.86.63,1.3s.27.61.41.93l.33.79c.11.26.22.53.32.81l.3.82c.31.82.59,1.68.86,2.55.14.45.28.91.41,1.37,0,.13.08.26.11.39.14.51.28,1,.41,1.54s.34,1.36.49,2.05c.08.34.16.68.23,1,.33,1.54.63,3.12.88,4.7.09.53.17,1.07.25,1.61.12.74.22,1.48.31,2.22.07.51.13,1,.19,1.51.16,1.31.3,2.62.41,3.91,0,.47.09.94.12,1.41.08.87.14,1.73.19,2.57,0,.6.08,1.2.11,1.79s.06,1.17.09,1.75c0,.13,0,.26,0,.39a13.34,13.34,0,0,0,.31,2.09v0a4.27,4.27,0,0,1,.08.55Q1409,1051.56,1409,1051.89Z" transform="translate(-364.01 -372.97)"/><path class="cls-8" d="M1165.1,950c2.17,31.73-27-4.1-6.47-33.28C1174.22,896.38,1157.91,941.58,1165.1,950Z" transform="translate(-364.01 -372.97)"/><path class="cls-8" d="M975.94,1249c-1.34,2.69-6.44,6.91-12.1,10.59a3.28,3.28,0,0,1-.31.2c-1,.69-2.13,1.35-3.2,2l-.75.43c-10.35,5.93-19.92,8.46-9.94-4.48a18.16,18.16,0,0,0,2.86-1.84c4.93-3.72,11.69-10.7,16.88-11.8a4.71,4.71,0,0,1,3.9.63,6.59,6.59,0,0,1,2.17,2.94A12.39,12.39,0,0,1,975.94,1249Z" transform="translate(-364.01 -372.97)"/><path class="cls-1" d="M752.55,466.81c-1.07.58-2.14,1.15-3.22,1.69l1.08-.58Z" transform="translate(-364.01 -372.97)"/><path class="cls-8" d="M626.85,576.72c-3.39,6.55-7.35,12.91-13.25,17.51-1.39,1.08-1.55-1.44-1.77-3.38,2.78-5.93,2.66-14.43,11.55-16.88C625.2,573.47,627.84,574.8,626.85,576.72Z" transform="translate(-364.01 -372.97)"/><path class="cls-16" d="M725.11,1386.73c.33.09.56.08.56,0A1.79,1.79,0,0,1,725.11,1386.73Z" transform="translate(-364.01 -372.97)"/><path class="cls-17" d="M774.8,1335.66l0-5.89c-.41-5.61-2.85-10.52-5.44-15.37-4.06-3.16-2.89-10.16-8.78-12a99.34,99.34,0,0,0-25.18-32.86c-6.48-5.6-12.4-12.09-19.55-16.65-21.66-13.82-39.35-19.78-62.93-5.91l-8.49,4.07-1.87.45a.55.55,0,0,0-.39.29l-8,7c-3.76,4-7,8.68-11.44,11.59-1.36.89-2.25,2.85-3.37,4.4a.88.88,0,0,0,0,.16,11.07,11.07,0,0,0,1.37,2.65,6.32,6.32,0,0,1,1,.43l2.47-1.24c3.78,6.9-2,9.6-5.63,13.52-1.88,2-3.74,4.88-3.9,7.47-.1,1.59,2.91,1.63,4.33-.34,1.76-5.62,10.18-4.17,11.12-8.39,2.6-11.71,10.16-15.52,20.35-13.74,8.61,1.5,16.2,5.22,19.37,15.52,3,9.58,1.33,20.7,9,28.77,0-2.71,1.2-6.37-.13-8-3.74-4.52,1.92-8.59-.26-12.69,1.65,2.74,3.32,5.47,4.94,8.21.9,1.52,1.75,3.07,2.62,4.61-2.52,9.37,2.77,16.69,6.33,24.49.69,1.51.5,3.42.71,5.14-.84-1.08-1.66-2.18-2.53-3.23a5,5,0,0,0-1-.78,4.34,4.34,0,0,1,.16,1.53c-1.84,6.14,3.52,8.78,5.65,13.07,3.32,6.66,3.6,14.84,5.17,22.37q.42,10.34.83,20.68c0,.6,0,1.19-.05,1.78l-.75,2.77c.53,9.08,3.8,17.29,7.91,25.25q.65,8.46,1.27,16.93c-.27.68-.82,1.37-.78,2,1.13,18.43.1,37.11,6,55,1.18,5,2.32,10,3.56,15a11.39,11.39,0,0,0,1.23,2.37,9.1,9.1,0,0,0,.55-2.87c-1.44-10.08-3.15-20.13-4.38-30.24-.41-3.37-2.45-6.94.13-10.34,3.6,2.75.64,6.72,1.83,9.92a25.33,25.33,0,0,1,.6,2.61c.14.54.36,1.06.54,1.58,0-.54.09-1.09.14-1.63.69-6.78-.71-13.77,2.11-20.32.29-2.91.53-5.83.9-8.73a8.54,8.54,0,0,1,.9-2.16,13.7,13.7,0,0,1,1.48,1.47c.6.81,1.08,1.71,1.61,2.57.67-1.11,1.88-2.2,1.94-3.34.16-3.7-.31-7.44-.12-11.14.15-2.73-3.54-6.95.53-7.87,4.57-1,2.56,4.61,4.09,7a14.24,14.24,0,0,1,1,2.67c.29-1,1-2.13.82-3.06-1.08-5.87.77-12.24-5.54-17.1-2.86-2.2-2.9-8.07-4.22-12.28-8.32-5.69-4.76-13.73-4-21.11.14-1.3,1.91-2.42,2.93-3.63,1,.95,2.45,1.71,3.06,2.89,5.9,11.25,12.67,22.25,11.52,35.8-.06.7.49,1.46.75,2.19a10.43,10.43,0,0,1,.54-1.9c6.67-13.22-2.37-25.77-2-38.94.32-10.46-1-20.64,2.34-31.08,2.92-9,8.45-17.67,4.82-28.27-4.52-13.22-8-26.8-11.74-40.28-.42-1.53-1.08-5.21,1-4.94,5.88.78,12.16-.27,16.1,7.27,12.6,24.1,24.32,48.41,29.15,75.46q3.22,19.26,6.47,38.53l.86-.11C784.91,1381.35,783.21,1357.93,774.8,1335.66Zm-49.69,51.07a1.79,1.79,0,0,0,.56,0S725.44,1386.82,725.11,1386.73Z" transform="translate(-364.01 -372.97)"/><path class="cls-16" d="M725.67,1386.76s-.23.06-.56,0A1.79,1.79,0,0,0,725.67,1386.76Z" transform="translate(-364.01 -372.97)"/><path class="cls-18" d="M579.51,1453.46c0,.24-.25.47-.38.7a4.89,4.89,0,0,1-.37-1.14c0-.22.24-.47.46-.88A6.38,6.38,0,0,1,579.51,1453.46Z" transform="translate(-364.01 -372.97)"/><path class="cls-19" d="M557.37,1624.47c6.22-.14,12.39-2.38,18.59-3.65-6.59,7.16-31.19,7.9-39.91,3.4s-19.25-5.87-27.41-11.88c-4.83-3.57-8-9.67-13.12-12.49-7.09-3.92-10.38-9.72-12.83-16.67,2.4-2.53,2.29-2.25,5.35,1.7C505.66,1607.65,526.48,1625.17,557.37,1624.47Z" transform="translate(-364.01 -372.97)"/><path class="cls-20" d="M548.92,1517.45c-4.16-14.84-9.58-29.42-8.85-45.22,5.22,11,5.39,23.19,8,34.79C548.86,1510.39,548.67,1514,548.92,1517.45Z" transform="translate(-364.01 -372.97)"/><path class="cls-21" d="M587.74,1368.83c-1.16-10.92.51-21.6,2.58-32.26-.54,11.17,2.4,22.34.07,33.51a8.73,8.73,0,0,1-.84,1.88Z" transform="translate(-364.01 -372.97)"/><path class="cls-22" d="M480,1439.07c0-1.31,0-2.36-2.58-2.14-5.89.5-2.5-6.92-6.38-8.7-.53-.24-.6-1.5-.88-2.29a4.41,4.41,0,0,1,1.52.17c.84.43,1.07,2.68,2.48,1,.28-.33-.76-2.42-1.65-3-9.31-6-8.26-14.76-6.2-23.67.28-1.25,1.78-2.22,2.71-3.32,1.06.91,2.49,1.62,3.12,2.77,6.38,11.57,11.78,23.43,10.74,37.19-.12,1.52,1.11,3.14,1.71,4.71.53-1.31,1.09-2.6,1.58-3.93,4.87-13.39-2.89-26-2.67-39.2.18-10.77-1.1-21.3,2-32.07,2.71-9.39,8.89-18.13,5-29.21-4.64-13.17-7.73-26.87-11.54-40.33-.57-2,.1-4,2.05-3,4,2,4.91-.62,6.28-3.07l.95-.09,0,0c.51.7,1,1.39,1.55,2.09l1.77,1.7c16.34,24.69,27.7,51.43,33.14,80.6l1.11,5.29c.22.9.43,1.8.64,2.7.08.59.17,1.19.25,1.79.26,1.2.52,2.4.77,3.6,0,.59.09,1.19.13,1.78.22,1.2.45,2.39.67,3.59s.15,2.38.22,3.57c.26,1.21.52,2.42.77,3.62,0,.89.08,1.77.11,2.66.27,1.21.53,2.41.79,3.62l.15,3.5,1.62,0c0-1.12,0-2.24,0-3.35a6.5,6.5,0,0,1,0-6.46c-.62-2.88-1.45-5.74-1.85-8.65-1.89-13.73-.93-28.66-6.24-40.88s-10.18-25.19-16.72-37.2c-5-9.13-8.29-19-17.42-25.07l-1-.91c-.41-5.1-5-6.88-7.95-9.9-5.82-6.38-12.68-11.53-19.3-17-17.18-14.25-45-17.06-63.2-5.58l-8.38,4-2,.51-.34.22-16.87,16-6.79,5.4c2.51-.38,5-.62,7.51-1.14,21-4.43,38.93.4,53,17.24,3.7,7.81,11.69,13.23,12.62,22.58.16,1.63.62,4.37.31,5.1A51.77,51.77,0,0,1,440,1337.1a107.23,107.23,0,0,1,5.46,28.25,7.63,7.63,0,0,1,2.23,5.33,95,95,0,0,0,1.11,9.89c.57,3,1.13,6,1.7,9-3.27,17.51,4,34.08,4.51,51.25.53,23.38-1.43,47,6.27,69.71.83,3.89,1.61,7.8,2.55,11.67a16.07,16.07,0,0,0,1.51,3.13,13.65,13.65,0,0,0,.49-3.63c-1.44-10.06-3.15-20.08-4.42-30.16-.41-3.2-2.24-9.3.18-9.18,3.49.17.7,5.79,1.73,8.89a33.64,33.64,0,0,1,.69,3.49,5.45,5.45,0,0,0,.51,1.13c.05-.39.12-.79.16-1.18q1.35-13.92,2.71-27.84c.55-.94.34-3.8,2.05-2.23,6,5.5,5-2,4.94-3.13-.1-4.71-1.18-9.39-1.7-14.11-.11-.91.69-1.92,1.06-2.89,1,.45,2.55.65,2.86,1.38,1.15,2.71,1.89,5.6,2.79,8.42-.06-3.32-.23-6.63-.14-9.94C479.32,1442.58,480,1440.83,480,1439.07Zm-9.72-1.53a4.7,4.7,0,0,1-.45-.55s.16-.32.21-.31a4.38,4.38,0,0,1,.69.25A4.81,4.81,0,0,1,470.28,1437.54Z" transform="translate(-364.01 -372.97)"/><path class="cls-23" d="M793,1468.36l-.09-1.67.87-4.44c2.38,17.16,10.87,33,10.62,50.76-4.86-11.1-6-23.15-8.91-34.75C794.63,1475,793.81,1471.66,793,1468.36Z" transform="translate(-364.01 -372.97)"/><path class="cls-24" d="M646.26,1533.75a38.67,38.67,0,0,1,.37,6.34c-.15,1.55-1.1,3-1.7,4.53-3.23,7.73-2.42,17.78-12.43,21.58,0,0,0,0,0-.08l0,.1,0,0a22.6,22.6,0,0,1-9.78,16.93c-4.81.81-2.76,5.58-4.66,8.07l-8.9,7.13-5.44,4.53c-.31.89-.63,1.77-1,2.65-8.13,4.27-13.41,13.62-24,13.47l4.71-4.6a41.76,41.76,0,0,1-6,2.37c-5.46,1.26-11,2.31-16.49,3.3-.66.12-1.47-.59-2.21-.92.26-.29.52-.84.77-.83,15.4.38,25-9.89,35.27-19,8.12-2.06,13.43-7.64,17.84-14.32A5.21,5.21,0,0,0,613,1583c-.48.33-1.14.56-1.42,1-6.74,11.2-19.26,11.08-29.7,14.74-4.41,1.54-8.77-2.8-11.13-5.69-1.39-1.69,3.52.32,5.27-.92h0v0l0,0c-3.3-3.13-6.29-6.69-10-9.32-7.26-5.21-7.47-12.8-7.83-20.47-2.33-9.3-4.75-18.59-6.9-27.93-.36-1.57-1.94-3.68.52-5.13,1.87,2.89,6.25,3.86,6.24,8.18,5.37-3.11,5.64,1.58,7,4.6.5,1.14.86,2.34,1.28,3.52a19.51,19.51,0,0,0,1.58-4.2c1.39-10.3,3-20.64-.91-30.8.36-1.7.71-3.41,1.07-5.11,3.05-4.36,3-9.56,3.87-14.51l1.06,0c.22,1.39.09,3,.73,4.11,1.34,2.37.93-.4,1.44-.62.56-4.88,1.09-9.75-.91-14.47l.84-14.4c.56-.64,1.12-1.29,1.69-1.93.32.54.87,1.07.93,1.64a156.94,156.94,0,0,1-.76,33.63c-2.77,9.15-2.07,18.43-1,27.72,3,7.15,2.51,14.45.77,21.73-1.31,5.46-1,11.43-5.09,16-.33,8.23.52,15.93,9.9,19,8.86,2.89,16.56,2.15,24.93-3.7,10.79-7.54,17.13-18.85,26.77-27.15,3.3-4.74,6.6-9.46,9.89-14.21C644.22,1536.88,645.23,1535.31,646.26,1533.75Z" transform="translate(-364.01 -372.97)"/><path class="cls-25" d="M577.88,1445a45.54,45.54,0,0,1,1.79-17.56c4.23,6.76.29,13.69.11,20.52C579.76,1448.37,579.1,1445.63,577.88,1445Z" transform="translate(-364.01 -372.97)"/><path class="cls-26" d="M660.24,1468.47c1.61,19.12-6,36.89-8.12,55.47l-2.27,1.2a7.45,7.45,0,0,1-.05-1.56Q655,1496,660.24,1468.47Z" transform="translate(-364.01 -372.97)"/><path class="cls-27" d="M847.19,1593.24c8.28-3.64,14.17-11.47,23.54-12.47-.37,1.48-.34,3.93-1.19,4.29-9.37,4-13.42,14.2-22.88,18.61-4.7,2.19-7.67,8.13-14.33,6.45l0-.06-.1,0c-5-2.24-9.44,1.48-14.22,1.32-1.64-.06-4.69-.73-4.69-.94.19-2.6,2.48-1.38,3.74-1.44C829.78,1608.38,837.08,1597.68,847.19,1593.24Z" transform="translate(-364.01 -372.97)"/><path class="cls-28" d="M832.31,1610.11h0c-4.76,7.18-12.05,8.14-19.79,8-13.14,1.56-24.36-4.74-36.41-8.2-12.76-3.67-18.41-15.6-28.47-21-7.42-4-6.4-10.42-10.43-14.78,3-4.28,3.89,0,5,1.48,14.8,19.76,32.91,34.68,57.78,39.81,11.19.88,21.79-1.8,32.23-5.42Z" transform="translate(-364.01 -372.97)"/><path class="cls-29" d="M878,1546.3c-1.31,6.85-4.29,13.3-2.07,20.82,1.25,4.23-2.85,7.19-6.87,8.86-3.44,2.27-6.35,1-9.41-1.09-2.19-1.52-3.51,1.7-3.37,2.17,3.77,11.84-7.42,7.47-11.22,9.23-9.07,4.21-12.34-3.91-15-10.47-1.31-3.2-2.14-5.1-5.75-3.39v0h0c-.32-1.1-.66-2.2-.94-3.31-.5-2-1.68-2.83-2.38-.44-.61,2.09,1.24,3.34,3.32,3.75,0,0,0,0,0,0l0,0c-.2,1.51-.4,3-.61,4.54-3.07-3.48-7.06-6.53-9-10.57-1.79-3.78-1.41-8.6-2-13-2.63-11.24-5.29-22.49-7.88-33.75-.29-1.28-1.48-2.84.57-3.85q4.44,7.28,8.9,14.54c1.2,4.79,2.36,9.6,3.62,14.38.16.59.79,1,1.2,1.57a11.76,11.76,0,0,0,.48-2c.71-8,1.38-16,2.06-24,2.13-9.61.12-20.24,7.05-28.67,2.51,2.76-1,4.74-.94,7.17.43,20.25.43,40.39-2.25,60.61-1.59,12.06,8.68,15.61,18.31,17,8.09,1.16,12.78-4.22,16.55-11,3.54-6.35,8.14-12.11,12.27-18.13,1.24-2.48,2.51-4.94,3.71-7.44,1.07-2.23,2-4.51,3.07-6.76.39,2.09.78,4.17,1.18,6.26Z" transform="translate(-364.01 -372.97)"/><path class="cls-30" d="M492.65,570.28c-2.83,6.87-7.2,13.11-11,19.54a4,4,0,0,1-5,2c-2.86-1-2.75-3.58-2.68-6.8,2.28-7-2.33-15.2,1.74-23,3-5.75,6.6-11,13.62-8.06C497,557.27,495,564.67,492.65,570.28Z" transform="translate(-364.01 -372.97)"/><path class="cls-31" d="M741.22,1098.05c1.83-.23,3.63-.76,5.45-1.16-1.28,1.68-2.25,3.74-3.87,5-8.26,6.27-18.66,7.58-27.85,11.73-6.05,6.17-37.31,9.89-44.38,5-3.27-2.26-7.27-5.32-5.63-9.73,2-5.51,7.81-6.52,13-6.85,17.12-1.06,34.26-1.8,51.4-2.67C733.3,1098.93,737.27,1098.56,741.22,1098.05Z" transform="translate(-364.01 -372.97)"/><path class="cls-32" d="M868.61,401.91c.74-.05,1.49,0,2.24,0a51.9,51.9,0,0,0-5.93-1.48c-14.39-1.82-29.07,4.14-43.44,1.63h0a1.58,1.58,0,0,0-.22-.23,2.43,2.43,0,0,0-.25-.2,2,2,0,0,0-.26-.18,2.14,2.14,0,0,0-.3-.17,1.87,1.87,0,0,0-.32-.15l-.48-.18a6.36,6.36,0,0,0-.66-.2l-.7-.16-1-.17-.85-.14a26.94,26.94,0,0,1-2.87-.55l-.05,0c-.87-.38-1.76-.81-2.63-1.28-2.17-.38-4.36-1.18-6.52-1.09-29.41,1.25-56.14,10.15-79.67,28.11-1.2.91-2.52,2.57-4.12.9-.2-.2,1.19-2.65,2.29-3.27,6-3.37,9.71-9,14-14.1,8.35-9.88,9.22-23.32,2.14-30.31-9.06-7.33-18.89-6.76-29-2.84-18.78,7.24-33.59,21-50.69,30.94a28.44,28.44,0,0,1-4.79,1.74c.27-1.81,0-4,.93-5.37,3.52-5.35,2.62-10.87,1.29-16.5-.32-.58-.65-1.16-1-1.74-2.64-6.89-8.79-7.06-14.08-5.78a96.2,96.2,0,0,0-37.93,19c-8.68,5.21-15.71,12.35-23.32,18.91-18.28,15.75-27.73,36.49-35.44,58-14.3,39.95-19,82.31-29,123.34-3.84,15.68-7.81,31.35-16.65,45.08-3.38,5.26-8,12.07-14.75,10.39-7-1.76-3.07-9-2.68-14,1-12.48-5.74-18.69-16.13-14.85h0l-3.61,1.8-1,.73c-14.46,11.87-22,28.08-26.77,45.43-13,46.86-2.71,91.91,13.53,135.72,8.16,22,20.47,42.4,32.65,62.68,10,16.63,22.93,31.65,29,50.49,1.55,4.78,4.53,10.57-.14,14.68-9.84,8.65-6.1,16.52.11,24.72,6.26,11.64,14.16,22.13,22.48,32.34,1.6,1.89,3,4.08,4.83,5.64,7.86,6.54,15.88,12.88,23.84,19.3,1.22,5.63,9.49,5.07,10.06,10.44,1.28,12,7.46,20.23,16.57,27.92,11.63,9.82,24.61,16.27,38.77,21,9.42,3.77,18.92,6.21,28.82,1.64,9.47-2,20.41-6.43,29.88-3,22,8,38.79-.32,59.33-.94,12.85-.39,26,1.78,38.34-4.1l26.59-17.11,2.73-1.94c0-.91-1.14-.82-1.7-.8-5.71.17-11.43.46-17.15.66a14.93,14.93,0,0,1-2.3-.17.57.57,0,0,1-.46-.75c.23-.65.45-1.3.69-2a1.16,1.16,0,0,1,.65-.69c8.08-3.36,16.13-6.8,24.28-10,1.83-.71,3.58-1.34,3.77-3a143.93,143.93,0,0,1-25.57,2.41,107.93,107.93,0,0,1-19.07,1.88h-.65c-.36,0-.73,0-1.09,0-14.71-.22-29.42-.46-43.91-3.54-23.92-5.09-40.46-21.92-58.25-36.75v0a58.88,58.88,0,0,0-4.44-6.52C643.3,967,630.47,938.3,645.05,903.06c11.42-31.17,34.36-53.37,58.46-74.53,8-7,15.43-14.39,19.23-24.31,3-7.8,6.63-17.29-2.88-22.9-8.8-5.19-18-2.54-25.67,4.13-15.3,7.75-24.09,21.55-31.87,35.78-12.65,23.14-18.55,48.82-26.59,73.71-1.44,4.46-3.8,10.42-10.48,10.6-4.18.11-6.34-3.15-6.87-6.48a41.84,41.84,0,0,1,.28-12.33c.6-4.17-.36-7.54-3.76-9.78-3.08-2-6.31-1.15-9.12,1-10.56,8.07-9.9,20-9.31,31,1.32,24.66,11,47.55,16.71,71.3,1.11,4.59,2.51,11.58-2.85,13.12-5.79,1.66-9.44-4-11.39-9.56s-3.89-11-5.84-16.55c-2.53-15.41-5.69-30.76-7.48-46.26-4.73-40.86-3.62-81.31,9-121,9-28.37,25.56-52.21,43-75.65,7.9-10.61,15.59-21.38,23.38-32.07l1-.94c11-13.33,20.9-27.45,28.7-43,4.47-7.81,9.48-15.37,13.28-23.49,4.75-10.14,8.51-20.75,12.69-31.15-3.41.82-3.56-.52-2.94-3.54,3.27-15.82,4-31.37-5.48-45.76a9.72,9.72,0,0,0-.91-1.17l-.31-.33-.21-.21a5.6,5.6,0,0,0-.43-.41c-.18-.17-.37-.33-.57-.49s-.57-.45-.87-.68h0c-.31-.22-.63-.44-1-.65s-.44-.28-.67-.41l-.89-.5c-.3-.16-.6-.32-.91-.47l-1-.44-1-.41-1.09-.41c-.73-.26-1.46-.5-2.21-.7l-1.11-.29c-.37-.09-.73-.17-1.1-.24l-1.09-.19-.11,0-1-.12-1-.09-.45,0h-.36a13.07,13.07,0,0,0-2.94.22l-.46.1a6.84,6.84,0,0,0-.87.26,3.8,3.8,0,0,0-.47.18,1.51,1.51,0,0,0-.26.12c-.13.06-.25.13-.37.2l0,0-.38.26a2.43,2.43,0,0,0-.3.24,4.89,4.89,0,0,0-.4.39c-5.42.39-6.34-2.82-3.75-6.29q1.81-2.43,3.66-4.82t3.73-4.74q1.53-1.9,3.09-3.78c.6-.73,1.2-1.45,1.82-2.16s1-1.16,1.48-1.74,1.24-1.44,1.87-2.15q4.5-5.14,9.27-10c.69-.7,1.38-1.39,2.08-2.08q2.08-2.07,4.23-4.08c.71-.67,1.43-1.34,2.16-2s1.44-1.32,2.18-2c.37-.33.74-.66,1.11-1s.74-.66,1.11-1c.74-.65,1.49-1.28,2.24-1.9.54-.45,1.07-.9,1.62-1.34,1-.8,2-1.59,3-2.36.77-.61,1.55-1.21,2.33-1.8s1.64-1.24,2.47-1.84c.45-.33.9-.66,1.35-1s1.14-.82,1.72-1.22,1.22-.85,1.83-1.27l.12-.08c.72-.49,1.45-1,2.19-1.46l1.36-.88q1.83-1.19,3.69-2.31c.85-.52,1.71-1,2.57-1.53s1.67-1,2.52-1.44l.3-.17c.81-.46,1.63-.91,2.45-1.34l1.08-.58,2.14-1.11.31-.16,2.56-1.28,1.31-.64c.46-.23.91-.45,1.37-.66l1.77-.84c.68-.32,1.35-.63,2-.93l1.25-.57.69-.31c1.18-.52,2.36-1,3.55-1.54q3.11-1.33,6.24-2.57c1-.39,2-.77,2.92-1.14,1.16-.46,2.32-.89,3.48-1.32,1-.38,2-.74,3-1.09a.44.44,0,0,1,.16-.06c.8-.3,1.58-.58,2.38-.85,1.33-.47,2.67-.94,4-1.39l2.93-1,2.53-.83c1.68-.55,3.38-1.09,5.07-1.61,1.47-.47,2.94-.92,4.42-1.36,1.19-.37,2.38-.72,3.57-1.07q2.91-.87,5.83-1.71c6.35-1.83,8.58-7.17,11.79-11.38,10.07-13.17,21.07-23.44,39.44-19.08a3.47,3.47,0,0,0,4.4-2.19c.76-2.4-1.15-3.83-2.81-5.05-2.42-1.78-8.33-1.6-7.4-4.05C860.58,398.86,865.35,402.14,868.61,401.91Zm-277.43,146h0l.11.15Zm35.67,28.78c-3.39,6.55-7.35,12.91-13.25,17.51-1.39,1.08-1.55-1.44-1.77-3.38,2.78-5.93,2.66-14.43,11.55-16.88C625.2,573.47,627.84,574.8,626.85,576.72Zm61.6-123.19c-14.09,12.65-25.77,27.53-38.56,41.38-18.49,20-38.16,38.76-62,52.39-7.28,4.16-13.66-1.1-13.65-11.39.69-14.76,9.6-26,20.63-35.57,18.57-16,41.3-25.29,63.39-34.79,10.09-4.34,18.07-11.93,28.51-15a32.21,32.21,0,0,1,4.18-.67C690.12,451.09,689.52,452.57,688.45,453.53Z" transform="translate(-364.01 -372.97)"/><path class="cls-33" d="M407.49,647c.07,1.25,1,3.45-1.36,3.4-.8,0-2.07-2-2.27-3.28-5.82-36.16-6.89-72.32,2.86-108,6.89-25.24,14.79-50.3,38.67-65.72,3-1.92,5.87-4.61,9.75-2.63s5.35,6,5.3,14.63c-1.36,18-9.82,35.89-19.79,52.9C420.91,572,405.14,606.65,407.49,647Z" transform="translate(-364.01 -372.97)"/><path class="cls-8" d="M1291.32,634.3l-.17.16a14.71,14.71,0,0,1-4.26,2.35l-.43.17-.28.11-.88.32c-.83.29-1.74.58-2.74.89s-2,.57-3.15.86a12.61,12.61,0,0,1-1.89,1.18l-.62.29a3.89,3.89,0,0,1-.51.21,4.87,4.87,0,0,1-.53.21c-.24.09-.48.16-.72.23a12,12,0,0,1-1.41.33l-.29,0c-.44.07-.87.12-1.31.15,0,0-.05,0-.07,0a2.36,2.36,0,0,1-.37,0c-10.43.44-19.73-9.94-2.89-13C1278.77,626.77,1296.05,629.62,1291.32,634.3Z" transform="translate(-364.01 -372.97)"/><path class="cls-8" d="M1612.62,856.42c-.16.55-.36,1.15-.58,1.77a6,6,0,0,0-1,.27c-3.23,1.18-6,5.19-8.62,9.6h0c-2.45,4.21-4.68,8.76-6.81,11.56-.24.32-.49.62-.73.9h0c-1.68,1.87-3.3,2.48-4.94.74a10.41,10.41,0,0,1-1.61-2.49,8.52,8.52,0,0,1-.26-.9c-1.42-6,3.12-14,8.75-20.2l0,0c4.16-4.55,8.88-8.11,12.24-9.11,1.75-.52,3.13-.35,3.87.74h0C1613.72,850.48,1613.74,852.77,1612.62,856.42Z" transform="translate(-364.01 -372.97)"/></g></svg>