<?xml version="1.0" encoding="utf-8"?>
<!-- Generator: Adobe Illustrator 24.3.0, SVG Export Plug-In . SVG Version: 6.00 Build 0)  -->
<svg version="1.1" id="Layer_1" xmlns="http://www.w3.org/2000/svg" xmlns:xlink="http://www.w3.org/1999/xlink" x="0px" y="0px"
	 viewBox="0 0 90 90" style="enable-background:new 0 0 90 90;" xml:space="preserve">
<style type="text/css">
	.st0{fill:url(#SVGID_1_);}
	.st1{fill:url(#SVGID_2_);}
	.st2{fill:url(#SVGID_3_);}
</style>
<linearGradient id="SVGID_1_" gradientUnits="userSpaceOnUse" x1="2.2998" y1="11.6382" x2="82.0171" y2="88.2549">
	<stop  offset="0" style="stop-color:#77B3E2"/>
	<stop  offset="8.759597e-02" style="stop-color:#6EB0E1"/>
	<stop  offset="0.2332" style="stop-color:#54A9DD"/>
	<stop  offset="0.4177" style="stop-color:#2B9DD8"/>
	<stop  offset="0.5843" style="stop-color:#0091D2"/>
	<stop  offset="1" style="stop-color:#007AC0"/>
</linearGradient>
<path class="st0" d="M38.8,51.2l10.9,10.9c1,1,2.5,1.2,3.7,0.5l13-7c1-0.5,2.1-0.5,3.1,0.1l19,11.3c1.4,0.8,1.9,2.5,1.3,3.9
	c-1.6,3.7-4.6,10.5-5.8,13.5c-0.2,0.6-0.6,1.2-1.1,1.7C70.2,97,45,83.6,25.7,64.3S-7,19.8,4,7.1C4.4,6.6,5,6.3,5.6,6
	c3-1.2,9.8-4.1,13.5-5.8c1.4-0.6,3.1-0.1,3.9,1.3l11.3,19c0.6,0.9,0.6,2.1,0.1,3.1l-7,13c-0.7,1.2-0.4,2.7,0.5,3.7L38.8,51.2z"/>
<linearGradient id="SVGID_2_" gradientUnits="userSpaceOnUse" x1="57.621" y1="1945.1003" x2="88.914" y2="1906.7467" gradientTransform="matrix(1 0 0 1 0 -1911)">
	<stop  offset="0" style="stop-color:#77B3E2"/>
	<stop  offset="8.759597e-02" style="stop-color:#6EB0E1"/>
	<stop  offset="0.2332" style="stop-color:#54A9DD"/>
	<stop  offset="0.4177" style="stop-color:#2B9DD8"/>
	<stop  offset="0.5843" style="stop-color:#0091D2"/>
	<stop  offset="1" style="stop-color:#007AC0"/>
</linearGradient>
<path class="st1" d="M90,49.5h-9C81,27.2,62.8,9,40.5,9V0C67.8,0,90,22.2,90,49.5z"/>
<linearGradient id="SVGID_3_" gradientUnits="userSpaceOnUse" x1="73.4622" y1="1957.6764" x2="32.3862" y2="1923.1002" gradientTransform="matrix(1 0 0 1 0 -1911)">
	<stop  offset="0" style="stop-color:#77B3E2"/>
	<stop  offset="8.759597e-02" style="stop-color:#6EB0E1"/>
	<stop  offset="0.2332" style="stop-color:#54A9DD"/>
	<stop  offset="0.4177" style="stop-color:#2B9DD8"/>
	<stop  offset="0.5843" style="stop-color:#0091D2"/>
	<stop  offset="1" style="stop-color:#007AC0"/>
</linearGradient>
<path class="st2" d="M72.5,49.5h-9c0-12.7-10.3-23-23-23v-9C58.1,17.5,72.5,31.9,72.5,49.5z"/>
</svg>
