<?xml version="1.0" encoding="utf-8"?>
<!-- Generator: Adobe Illustrator 24.3.0, SVG Export Plug-In . SVG Version: 6.00 Build 0)  -->
<svg version="1.1"
	 id="svg5446" inkscape:version="0.92.1 r" sodipodi:docname="vkontakte-ocon.svg" xmlns:cc="http://creativecommons.org/ns#" xmlns:dc="http://purl.org/dc/elements/1.1/" xmlns:inkscape="http://www.inkscape.org/namespaces/inkscape" xmlns:rdf="http://www.w3.org/1999/02/22-rdf-syntax-ns#" xmlns:sodipodi="http://sodipodi.sourceforge.net/DTD/sodipodi-0.dtd" xmlns:svg="http://www.w3.org/2000/svg"
	 xmlns="http://www.w3.org/2000/svg" xmlns:xlink="http://www.w3.org/1999/xlink" x="0px" y="0px" viewBox="0 0 26.7 25"
	 style="enable-background:new 0 0 26.7 25;" xml:space="preserve">
<style type="text/css">
	.st0{fill:url(#path2_1_);}
	.st1{fill:url(#rect5195-9_1_);fill-opacity:0.9958;}
</style>
<sodipodi:namedview  bordercolor="#666666" borderopacity="1.0" id="base" inkscape:current-layer="layer1" inkscape:cx="27.072227" inkscape:cy="40.98824" inkscape:document-units="mm" inkscape:pageopacity="0.0" inkscape:pageshadow="2" inkscape:window-height="845" inkscape:window-maximized="1" inkscape:window-width="1600" inkscape:window-x="0" inkscape:window-y="31" inkscape:zoom="11.2" pagecolor="#ffffff" showgrid="false" units="px">
	</sodipodi:namedview>
<g id="layer1" transform="translate(0,-290.38541)" inkscape:groupmode="layer" inkscape:label="Layer 1">
	<g id="g6254" transform="matrix(1.0211941,0,0,1.0211941,4.3087682,-4.7288527)">
		<g id="g5402" transform="translate(-209.74063,-21.509701)">
			<g id="g12" transform="matrix(0.16613137,0,0,0.16613137,218.02967,310.4226)">
				<g id="g10">
					<g id="g8">
						<g id="g6">
							<g id="g4">
								<linearGradient id="path2_1_" gradientUnits="userSpaceOnUse" x1="-41.8125" y1="74.1417" x2="-26.476" y2="74.1417">
									<stop  offset="0" style="stop-color:#77B3E2"/>
									<stop  offset="8.759597e-02" style="stop-color:#6EB0E1"/>
									<stop  offset="0.2332" style="stop-color:#54A9DD"/>
									<stop  offset="0.4177" style="stop-color:#2B9DD8"/>
									<stop  offset="0.5843" style="stop-color:#0091D2"/>
									<stop  offset="1" style="stop-color:#007AC0"/>
								</linearGradient>
								
									<path id="path2" inkscape:connector-curvature="0" sodipodi:nodetypes="scccccccscccccccccccccccccsscccsccccccccsccccccccccs" class="st0" d="
									M31.7,100.5c-1,0-3-0.2-5.4-1.8c-1.8-1.2-3.5-3.2-5.2-5.1c-2.5-2.9-5-5.5-6.9-4.9c-2.7,0.8-3.3,5.8-3.3,8.3
									c0,0.2-0.1,1.2-0.7,1.9c-0.5,0.5-1.2,0.7-2.4,0.7l-5.6,0c0,0-0.3,0-0.7,0c-2.8,0-12.8-0.7-21.6-9.8
									c-11.4-11.7-21.5-34.9-21.6-35.2l0.3-2.4c0,0,0,0,0.1,0l0.6-0.3c0.7-0.3,1.6-0.3,1.8-0.3l12.7-0.1c0.3,0,1.5,0.3,2.3,0.8
									c0.7,0.5,1.1,1.5,1.1,1.5c0,0.1,2.1,5.3,4.9,10c5,8.5,7.6,11.4,9.8,10.3c1.3-0.7,2.4-5,1.9-13c0-1.6-0.2-4.8-1.4-6.3
									c-0.7-0.9-1.7-1.5-2.5-1.8l-2.5-1l2-1.7c0.3-0.3,0.6-0.5,0.9-0.6c1.7-0.8,4.3-1.9,7.5-1.9h4.4c2.3,0,3.5,0.5,4.5,0.9
									c0.4,0.2,0.8,0.4,1.3,0.5c3.5,0.8,3.3,4,3.1,9.9c-0.1,1.7-0.1,3.7-0.1,6c0,0.5,0,1,0,1.6c-0.1,2.8-0.2,6.3,1.8,7.5
									c1.1,0.7,3.5,0,9.5-10.1c2.9-4.8,5-10.3,5-10.4c0.1-0.1,0.5-1.1,1.2-1.6c0.5-0.3,1-0.3,1.4-0.3l0.5,0l13.7-0.1
									c0,0,0.4,0,1,0c1.9,0,2.8,0.5,3,0.6l0.4,0.3l0.2,0.5c0.7,1.9-1.7,6.6-7.1,13.7c-1.2,1.5-2.2,2.9-3.1,4
									c-6.1,7.8-6.1,7.8,0.5,13.9c5.8,5.3,8.1,8.6,9.1,10.4c0.8,1.3,1,2.4,0.5,3.3c-0.9,1.7-3.7,1.9-3.8,1.9l-12.4,0.2
									C32.1,100.5,32,100.5,31.7,100.5z"/>
							</g>
						</g>
					</g>
				</g>
			</g>
			<linearGradient id="rect5195-9_1_" gradientUnits="userSpaceOnUse" x1="206.5257" y1="322.7398" x2="231.1708" y2="322.7398">
				<stop  offset="0" style="stop-color:#77B3E2"/>
				<stop  offset="8.759597e-02" style="stop-color:#6EB0E1"/>
				<stop  offset="0.2332" style="stop-color:#54A9DD"/>
				<stop  offset="0.4177" style="stop-color:#2B9DD8"/>
				<stop  offset="0.5843" style="stop-color:#0091D2"/>
				<stop  offset="1" style="stop-color:#007AC0"/>
			</linearGradient>
			<path id="rect5195-9" inkscape:connector-curvature="0" class="st1" d="M209.7,310.7c-1.7,0-3.2,1.4-3.2,3.2v17.8
				c0,1.7,1.4,3.2,3.2,3.2h17.7c1.7,0,3.2-1.4,3.2-3.2v-17.8c0-1.7-1.4-3.2-3.2-3.2H209.7z M209.7,313h17.7c0.5,0,0.9,0.4,0.9,0.9
				v17.8c0,0.5-0.4,0.9-0.9,0.9h-17.7c-0.5,0-0.9-0.4-0.9-0.9v-17.8C208.8,313.3,209.2,313,209.7,313z"/>
		</g>
	</g>
</g>
</svg>
